<svg width="70" height="76" viewBox="0 0 70 76" fill="none" xmlns="http://www.w3.org/2000/svg">
<g filter="url(#filter0_d_234_1142)">
<path d="M3 33.9667C3 16.2936 17.3269 1.96667 35 1.96667C52.6731 1.96667 67 16.2936 67 33.9667V39.9167C67 57.5898 52.6731 71.9167 35 71.9167C17.3269 71.9167 3 57.5898 3 39.9167V33.9667Z" fill="#5C4033" shape-rendering="crispEdges"/>
<path d="M31.6667 35.7683V50.275C31.6667 51.195 31.6667 51.9416 33.3334 51.9416H36.6667C38.3334 51.9416 38.3334 51.195 38.3334 50.275V39.005C35.7723 38.8438 33.3775 37.6811 31.6667 35.7683Z" fill="white"/>
<path fill-rule="evenodd" clip-rule="evenodd" d="M32.33 32.2767C32.7621 33.216 33.3888 34.0528 34.1687 34.7316C34.9486 35.4105 35.8639 35.9158 36.8539 36.2141C37.8439 36.5124 38.8859 36.5969 39.911 36.462C40.9362 36.3271 41.9209 35.9759 42.8 35.4317L47.155 39.7867L49.5117 37.43L45.1567 33.075C45.8204 32.0032 46.1949 30.7777 46.2437 29.5181C46.2924 28.2584 46.0138 27.0076 45.4349 25.8877C44.856 24.7679 43.9967 23.8172 42.9408 23.1286C41.885 22.4399 40.6686 22.0367 39.4104 21.9584C38.1522 21.8801 36.8952 22.1293 35.7621 22.6818C34.629 23.2342 33.6584 24.0709 32.9452 25.1104C32.2319 26.1498 31.8003 27.3564 31.6925 28.6124C31.5847 29.8684 31.8043 31.1309 32.33 32.2767ZM38.9583 33.1917C38.7217 33.1917 38.49 33.1717 38.2633 33.1317C37.4235 32.9821 36.6546 32.5646 36.0717 31.9417C35.4488 31.2777 35.0738 30.4194 35.0099 29.5113C34.9459 28.6032 35.197 27.7008 35.7207 26.9561C36.2445 26.2115 37.0088 25.6701 37.8851 25.4233C38.7614 25.1764 39.6959 25.2392 40.5314 25.6009C41.3668 25.9627 42.0519 26.6013 42.4714 27.4093C42.891 28.2172 43.0191 29.1451 42.8344 30.0365C42.6497 30.928 42.1633 31.7285 41.4573 32.3032C40.7513 32.8779 39.8687 33.1917 38.9583 33.1917Z" fill="white"/>
<path d="M21.6667 23.6083C21.6667 22.6883 21.6667 21.9417 23.3334 21.9417H26.6667C28.3334 21.9417 28.3334 22.6883 28.3334 23.6083V50.275C28.3334 51.195 28.3334 51.9417 26.6667 51.9417H23.3334C21.6667 51.9417 21.6667 51.195 21.6667 50.275V23.6083ZM43.3334 41.9417C41.6667 41.9417 41.6667 42.6883 41.6667 43.6083V50.275C41.6667 51.195 41.6667 51.9417 43.3334 51.9417H46.6667C47.5867 51.9417 48.3334 51.9417 48.3334 50.275V43.6083C48.3334 42.6883 48.3334 41.9417 46.6667 41.9417H43.3334Z" fill="white"/>
</g>
<defs>
<filter id="filter0_d_234_1142" x="0.504167" y="0.718758" width="68.9917" height="74.9417" filterUnits="userSpaceOnUse" color-interpolation-filters="sRGB">
<feFlood flood-opacity="0" result="BackgroundImageFix"/>
<feColorMatrix in="SourceAlpha" type="matrix" values="0 0 0 0 0 0 0 0 0 0 0 0 0 0 0 0 0 0 127 0" result="hardAlpha"/>
<feOffset dy="1.24792"/>
<feGaussianBlur stdDeviation="1.24792"/>
<feComposite in2="hardAlpha" operator="out"/>
<feColorMatrix type="matrix" values="0 0 0 0 0.0627451 0 0 0 0 0.0941176 0 0 0 0 0.156863 0 0 0 0.04 0"/>
<feBlend mode="normal" in2="BackgroundImageFix" result="effect1_dropShadow_234_1142"/>
<feBlend mode="normal" in="SourceGraphic" in2="effect1_dropShadow_234_1142" result="shape"/>
</filter>
</defs>
</svg>
