<svg width="70" height="76" viewBox="0 0 70 76" fill="none" xmlns="http://www.w3.org/2000/svg">
<g filter="url(#filter0_d_234_1167)">
<path d="M2.88892 33.9667C2.88892 16.2936 17.2158 1.96667 34.8889 1.96667C52.562 1.96667 66.8889 16.2936 66.8889 33.9667V39.9167C66.8889 57.5898 52.562 71.9167 34.8889 71.9167C17.2158 71.9167 2.88892 57.5898 2.88892 39.9167V33.9667Z" fill="#5C4033" shape-rendering="crispEdges"/>
<path d="M34.8889 21.9467C34.233 21.9467 33.5834 22.0759 32.9774 22.3269C32.3714 22.5779 31.8207 22.9458 31.3569 23.4097C30.8931 23.8735 30.5252 24.4241 30.2741 25.0302C30.0231 25.6362 29.8939 26.2857 29.8939 26.9417C29.8939 27.5976 30.0231 28.2471 30.2741 28.8532C30.5252 29.4592 30.8931 30.0098 31.3569 30.4737C31.8207 30.9375 32.3714 31.3054 32.9774 31.5564C33.5834 31.8075 34.233 31.9367 34.8889 31.9367C36.2137 31.9367 37.4842 31.4104 38.4209 30.4737C39.3577 29.5369 39.8839 28.2664 39.8839 26.9417C39.8839 25.6169 39.3577 24.3464 38.4209 23.4097C37.4842 22.4729 36.2137 21.9467 34.8889 21.9467ZM46.1389 24.4417C45.1444 24.4417 44.1905 24.8367 43.4873 25.54C42.784 26.2433 42.3889 27.1971 42.3889 28.1917C42.3889 29.1862 42.784 30.14 43.4873 30.8433C44.1905 31.5466 45.1444 31.9417 46.1389 31.9417C47.1335 31.9417 48.0873 31.5466 48.7906 30.8433C49.4938 30.14 49.8889 29.1862 49.8889 28.1917C49.8889 27.1971 49.4938 26.2433 48.7906 25.54C48.0873 24.8367 47.1335 24.4417 46.1389 24.4417ZM23.6389 24.4417C22.6444 24.4417 21.6905 24.8367 20.9873 25.54C20.284 26.2433 19.8889 27.1971 19.8889 28.1917C19.8889 29.1862 20.284 30.14 20.9873 30.8433C21.6905 31.5466 22.6444 31.9417 23.6389 31.9417C24.6335 31.9417 25.5873 31.5466 26.2906 30.8433C26.9938 30.14 27.3889 29.1862 27.3889 28.1917C27.3889 27.1971 26.9938 26.2433 26.2906 25.54C25.5873 24.8367 24.6335 24.4417 23.6389 24.4417ZM27.3889 36.9242C27.3935 36.2642 27.659 35.6328 28.1273 35.1677C28.5956 34.7026 29.2289 34.4416 29.8889 34.4417H39.8889C40.552 34.4417 41.1878 34.705 41.6567 35.1739C42.1255 35.6427 42.3889 36.2786 42.3889 36.9417V44.4417C42.3896 45.2285 42.2664 46.0106 42.0239 46.7592C41.4703 48.4559 40.33 49.8997 38.8077 50.8314C37.2854 51.7631 35.4808 52.1215 33.718 51.8423C31.9552 51.5632 30.3496 50.6648 29.1896 49.3083C28.0296 47.9519 27.3912 46.2264 27.3889 44.4417V36.9242ZM24.8889 36.9417C24.8889 36.0292 25.1314 35.1767 25.5589 34.4417H19.8889C19.2259 34.4417 18.59 34.705 18.1211 35.1739C17.6523 35.6427 17.3889 36.2786 17.3889 36.9417V43.1917C17.3886 44.2149 17.6395 45.2226 18.1196 46.1262C18.5997 47.0299 19.2944 47.8018 20.1425 48.3742C20.9907 48.9467 21.9664 49.3021 22.9841 49.4093C24.0017 49.5165 25.0301 49.3723 25.9789 48.9892C25.2609 47.58 24.8873 46.0207 24.8889 44.4392V36.9417ZM44.8889 36.9417V44.4417C44.8889 46.0792 44.4964 47.6242 43.7989 48.9892C44.7478 49.3723 45.7761 49.5165 46.7938 49.4093C47.8114 49.3021 48.7871 48.9467 49.6353 48.3742C50.4835 47.8018 51.1781 47.0299 51.6582 46.1262C52.1384 45.2226 52.3893 44.2149 52.3889 43.1917V36.9417C52.3889 36.2786 52.1255 35.6427 51.6567 35.1739C51.1878 34.705 50.552 34.4417 49.8889 34.4417H44.2189C44.6439 35.1767 44.8889 36.0292 44.8889 36.9417Z" fill="white"/>
</g>
<defs>
<filter id="filter0_d_234_1167" x="0.393083" y="0.718758" width="68.9917" height="74.9417" filterUnits="userSpaceOnUse" color-interpolation-filters="sRGB">
<feFlood flood-opacity="0" result="BackgroundImageFix"/>
<feColorMatrix in="SourceAlpha" type="matrix" values="0 0 0 0 0 0 0 0 0 0 0 0 0 0 0 0 0 0 127 0" result="hardAlpha"/>
<feOffset dy="1.24792"/>
<feGaussianBlur stdDeviation="1.24792"/>
<feComposite in2="hardAlpha" operator="out"/>
<feColorMatrix type="matrix" values="0 0 0 0 0.0627451 0 0 0 0 0.0941176 0 0 0 0 0.156863 0 0 0 0.04 0"/>
<feBlend mode="normal" in2="BackgroundImageFix" result="effect1_dropShadow_234_1167"/>
<feBlend mode="normal" in="SourceGraphic" in2="effect1_dropShadow_234_1167" result="shape"/>
</filter>
</defs>
</svg>
