<svg width="76" height="76" viewBox="0 0 76 76" fill="none" xmlns="http://www.w3.org/2000/svg">
<g filter="url(#filter0_d_234_1157)">
<path d="M3.44446 36.9083C3.44446 17.6106 19.0884 1.96667 38.3861 1.96667V1.96667C57.6839 1.96667 73.3278 17.6106 73.3278 36.9083V36.9083C73.3278 56.2061 57.6839 71.85 38.3861 71.85V71.85C19.0884 71.85 3.44446 56.2061 3.44446 36.9083V36.9083Z" fill="#5C4033" shape-rendering="crispEdges"/>
<g filter="url(#filter1_d_234_1157)">
<path fill-rule="evenodd" clip-rule="evenodd" d="M23.4111 27.2578C23.4111 25.3941 23.4111 24.4622 23.7738 23.7503C24.0929 23.1242 24.602 22.6151 25.2281 22.2961C25.94 21.9333 26.8718 21.9333 28.7356 21.9333H48.0367C49.9004 21.9333 50.8323 21.9333 51.5441 22.2961C52.1703 22.6151 52.6794 23.1242 52.9984 23.7503C53.3611 24.4622 53.3611 25.3941 53.3611 27.2578V38.2395C53.3611 40.1032 53.3611 41.0351 52.9984 41.7469C52.6794 42.3731 52.1703 42.8822 51.5441 43.2012C50.8323 43.5639 49.9004 43.5639 48.0367 43.5639H40.05V50.2195H48.3695C49.2884 50.2195 50.0334 50.9644 50.0334 51.8834C50.0334 52.8023 49.2884 53.5472 48.3695 53.5472H28.4028C27.4839 53.5472 26.7389 52.8023 26.7389 51.8834C26.7389 50.9644 27.4839 50.2195 28.4028 50.2195H36.7222V43.5639H28.7356C26.8718 43.5639 25.94 43.5639 25.2281 43.2012C24.602 42.8822 24.0929 42.3731 23.7738 41.7469C23.4111 41.0351 23.4111 40.1032 23.4111 38.2395V27.2578ZM31.7306 33.5806C32.6495 33.5806 33.3945 34.3255 33.3945 35.2445L33.3945 38.5722C33.3945 39.4912 32.6495 40.2361 31.7306 40.2361C30.8116 40.2361 30.0667 39.4912 30.0667 38.5722L30.0667 35.2445C30.0667 34.3255 30.8116 33.5806 31.7306 33.5806ZM40.05 28.5889C40.05 27.67 39.3051 26.925 38.3861 26.925C37.4672 26.925 36.7222 27.67 36.7222 28.5889L36.7222 38.5722C36.7222 39.4912 37.4672 40.2361 38.3861 40.2361C39.3051 40.2361 40.05 39.4912 40.05 38.5722L40.05 28.5889ZM45.0417 30.2528C45.9606 30.2528 46.7056 30.9977 46.7056 31.9167V38.5722C46.7056 39.4912 45.9606 40.2361 45.0417 40.2361C44.1227 40.2361 43.3778 39.4912 43.3778 38.5722V31.9167C43.3778 30.9977 44.1227 30.2528 45.0417 30.2528Z" fill="white"/>
</g>
</g>
<defs>
<filter id="filter0_d_234_1157" x="0.948625" y="0.718758" width="74.875" height="74.875" filterUnits="userSpaceOnUse" color-interpolation-filters="sRGB">
<feFlood flood-opacity="0" result="BackgroundImageFix"/>
<feColorMatrix in="SourceAlpha" type="matrix" values="0 0 0 0 0 0 0 0 0 0 0 0 0 0 0 0 0 0 127 0" result="hardAlpha"/>
<feOffset dy="1.24792"/>
<feGaussianBlur stdDeviation="1.24792"/>
<feComposite in2="hardAlpha" operator="out"/>
<feColorMatrix type="matrix" values="0 0 0 0 0.0627451 0 0 0 0 0.0941176 0 0 0 0 0.156863 0 0 0 0.04 0"/>
<feBlend mode="normal" in2="BackgroundImageFix" result="effect1_dropShadow_234_1157"/>
<feBlend mode="normal" in="SourceGraphic" in2="effect1_dropShadow_234_1157" result="shape"/>
</filter>
<filter id="filter1_d_234_1157" x="20.9153" y="20.6854" width="34.9416" height="36.6056" filterUnits="userSpaceOnUse" color-interpolation-filters="sRGB">
<feFlood flood-opacity="0" result="BackgroundImageFix"/>
<feColorMatrix in="SourceAlpha" type="matrix" values="0 0 0 0 0 0 0 0 0 0 0 0 0 0 0 0 0 0 127 0" result="hardAlpha"/>
<feOffset dy="1.24792"/>
<feGaussianBlur stdDeviation="1.24792"/>
<feComposite in2="hardAlpha" operator="out"/>
<feColorMatrix type="matrix" values="0 0 0 0 0.0627451 0 0 0 0 0.0941176 0 0 0 0 0.156863 0 0 0 0.04 0"/>
<feBlend mode="normal" in2="BackgroundImageFix" result="effect1_dropShadow_234_1157"/>
<feBlend mode="normal" in="SourceGraphic" in2="effect1_dropShadow_234_1157" result="shape"/>
</filter>
</defs>
</svg>
