<svg width="36" height="38" viewBox="0 0 36 38" fill="none" xmlns="http://www.w3.org/2000/svg">
<g filter="url(#filter0_d_414_23)">
<path fill-rule="evenodd" clip-rule="evenodd" d="M3.41113 7.25779C3.41113 5.39406 3.41113 4.4622 3.77384 3.75035C4.09288 3.12419 4.60197 2.6151 5.22813 2.29606C5.93998 1.93335 6.87185 1.93335 8.73558 1.93335H28.0367C29.9004 1.93335 30.8323 1.93335 31.5441 2.29606C32.1703 2.6151 32.6794 3.12419 32.9984 3.75035C33.3611 4.4622 33.3611 5.39406 33.3611 7.25779V18.2395C33.3611 20.1032 33.3611 21.0351 32.9984 21.7469C32.6794 22.3731 32.1703 22.8822 31.5441 23.2012C30.8323 23.5639 29.9004 23.5639 28.0367 23.5639H20.05V30.2195H28.3695C29.2884 30.2195 30.0334 30.9644 30.0334 31.8834C30.0334 32.8023 29.2884 33.5472 28.3695 33.5472H8.4028C7.48386 33.5472 6.73891 32.8023 6.73891 31.8834C6.73891 30.9644 7.48386 30.2195 8.4028 30.2195H16.7222V23.5639H8.73558C6.87185 23.5639 5.93998 23.5639 5.22813 23.2012C4.60197 22.8822 4.09288 22.3731 3.77384 21.7469C3.41113 21.0351 3.41113 20.1032 3.41113 18.2395V7.25779ZM11.7306 13.5806C12.6495 13.5806 13.3945 14.3255 13.3945 15.2445L13.3945 18.5722C13.3945 19.4912 12.6495 20.2361 11.7306 20.2361C10.8116 20.2361 10.0667 19.4912 10.0667 18.5722L10.0667 15.2445C10.0667 14.3255 10.8116 13.5806 11.7306 13.5806ZM20.05 8.58891C20.05 7.66996 19.3051 6.92502 18.3861 6.92502C17.4672 6.92502 16.7222 7.66996 16.7222 8.58891L16.7222 18.5722C16.7222 19.4912 17.4672 20.2361 18.3861 20.2361C19.3051 20.2361 20.05 19.4912 20.05 18.5722L20.05 8.58891ZM25.0417 10.2528C25.9606 10.2528 26.7056 10.9977 26.7056 11.9167V18.5722C26.7056 19.4912 25.9606 20.2361 25.0417 20.2361C24.1227 20.2361 23.3778 19.4912 23.3778 18.5722V11.9167C23.3778 10.9977 24.1227 10.2528 25.0417 10.2528Z" fill="white"/>
</g>
<defs>
<filter id="filter0_d_414_23" x="0.915299" y="0.685433" width="34.9416" height="36.6056" filterUnits="userSpaceOnUse" color-interpolation-filters="sRGB">
<feFlood flood-opacity="0" result="BackgroundImageFix"/>
<feColorMatrix in="SourceAlpha" type="matrix" values="0 0 0 0 0 0 0 0 0 0 0 0 0 0 0 0 0 0 127 0" result="hardAlpha"/>
<feOffset dy="1.24792"/>
<feGaussianBlur stdDeviation="1.24792"/>
<feComposite in2="hardAlpha" operator="out"/>
<feColorMatrix type="matrix" values="0 0 0 0 0.0627451 0 0 0 0 0.0941176 0 0 0 0 0.156863 0 0 0 0.04 0"/>
<feBlend mode="normal" in2="BackgroundImageFix" result="effect1_dropShadow_414_23"/>
<feBlend mode="normal" in="SourceGraphic" in2="effect1_dropShadow_414_23" result="shape"/>
</filter>
</defs>
</svg>
