<svg width="36" height="31" viewBox="0 0 36 31" fill="none" xmlns="http://www.w3.org/2000/svg">
<path d="M17.8889 0.946655C17.233 0.946655 16.5834 1.07585 15.9774 1.32688C15.3714 1.5779 14.8207 1.94583 14.3569 2.40966C13.8931 2.87349 13.5252 3.42413 13.2741 4.03015C13.0231 4.63617 12.8939 5.2857 12.8939 5.94166C12.8939 6.59761 13.0231 7.24714 13.2741 7.85316C13.5252 8.45918 13.8931 9.00982 14.3569 9.47365C14.8207 9.93748 15.3714 10.3054 15.9774 10.5564C16.5834 10.8075 17.233 10.9367 17.8889 10.9367C19.2137 10.9367 20.4842 10.4104 21.4209 9.47365C22.3577 8.53691 22.8839 7.26641 22.8839 5.94166C22.8839 4.6169 22.3577 3.3464 21.4209 2.40966C20.4842 1.47291 19.2137 0.946655 17.8889 0.946655ZM29.1389 3.44166C28.1444 3.44166 27.1905 3.83674 26.4873 4.54C25.784 5.24327 25.3889 6.19709 25.3889 7.19166C25.3889 8.18622 25.784 9.14004 26.4873 9.84331C27.1905 10.5466 28.1444 10.9417 29.1389 10.9417C30.1335 10.9417 31.0873 10.5466 31.7906 9.84331C32.4938 9.14004 32.8889 8.18622 32.8889 7.19166C32.8889 6.19709 32.4938 5.24327 31.7906 4.54C31.0873 3.83674 30.1335 3.44166 29.1389 3.44166ZM6.63892 3.44166C5.64435 3.44166 4.69053 3.83674 3.98727 4.54C3.284 5.24327 2.88892 6.19709 2.88892 7.19166C2.88892 8.18622 3.284 9.14004 3.98727 9.84331C4.69053 10.5466 5.64435 10.9417 6.63892 10.9417C7.63348 10.9417 8.58731 10.5466 9.29057 9.84331C9.99383 9.14004 10.3889 8.18622 10.3889 7.19166C10.3889 6.19709 9.99383 5.24327 9.29057 4.54C8.58731 3.83674 7.63348 3.44166 6.63892 3.44166ZM10.3889 15.9242C10.3935 15.2642 10.659 14.6328 11.1273 14.1677C11.5956 13.7026 12.2289 13.4416 12.8889 13.4417H22.8889C23.552 13.4417 24.1878 13.705 24.6567 14.1739C25.1255 14.6427 25.3889 15.2786 25.3889 15.9417V23.4417C25.3896 24.2285 25.2664 25.0106 25.0239 25.7592C24.4703 27.4559 23.33 28.8997 21.8077 29.8314C20.2854 30.7631 18.4808 31.1215 16.718 30.8423C14.9552 30.5632 13.3496 29.6648 12.1896 28.3083C11.0296 26.9519 10.3912 25.2264 10.3889 23.4417V15.9242ZM7.88892 15.9417C7.88892 15.0292 8.13142 14.1767 8.55892 13.4417H2.88892C2.22588 13.4417 1.58999 13.705 1.12115 14.1739C0.652308 14.6427 0.388916 15.2786 0.388916 15.9417V22.1917C0.388576 23.2149 0.639481 24.2226 1.1196 25.1262C1.59972 26.0299 2.29436 26.8018 3.14252 27.3742C3.99069 27.9467 4.96643 28.3021 5.98406 28.4093C7.00169 28.5165 8.03008 28.3723 8.97892 27.9892C8.2609 26.58 7.88734 25.0207 7.88892 23.4392V15.9417ZM27.8889 15.9417V23.4417C27.8889 25.0792 27.4964 26.6242 26.7989 27.9892C27.7478 28.3723 28.7761 28.5165 29.7938 28.4093C30.8114 28.3021 31.7871 27.9467 32.6353 27.3742C33.4835 26.8018 34.1781 26.0299 34.6582 25.1262C35.1384 24.2226 35.3893 23.2149 35.3889 22.1917V15.9417C35.3889 15.2786 35.1255 14.6427 34.6567 14.1739C34.1878 13.705 33.552 13.4417 32.8889 13.4417H27.2189C27.6439 14.1767 27.8889 15.0292 27.8889 15.9417Z" fill="white"/>
</svg>
