<svg width="40" height="41" viewBox="0 0 40 41" fill="none" xmlns="http://www.w3.org/2000/svg">
<path d="M16.6667 19.7683V34.275C16.6667 35.195 16.6667 35.9416 18.3334 35.9416H21.6667C23.3334 35.9416 23.3334 35.195 23.3334 34.275V23.005C20.7723 22.8438 18.3775 21.6811 16.6667 19.7683Z" fill="white"/>
<path fill-rule="evenodd" clip-rule="evenodd" d="M17.33 16.2767C17.7621 17.216 18.3888 18.0528 19.1687 18.7316C19.9486 19.4105 20.8639 19.9158 21.8539 20.2141C22.8439 20.5124 23.8859 20.5969 24.911 20.462C25.9362 20.3271 26.9209 19.9759 27.8 19.4317L32.155 23.7867L34.5117 21.43L30.1567 17.075C30.8204 16.0032 31.1949 14.7777 31.2437 13.5181C31.2924 12.2584 31.0138 11.0076 30.4349 9.88773C29.856 8.76788 28.9967 7.81723 27.9408 7.12856C26.885 6.43989 25.6686 6.03673 24.4104 5.95842C23.1522 5.88011 21.8952 6.12933 20.7621 6.68176C19.629 7.23418 18.6584 8.07094 17.9452 9.11037C17.2319 10.1498 16.8003 11.3564 16.6925 12.6124C16.5847 13.8684 16.8043 15.1309 17.33 16.2767ZM23.9583 17.1917C23.7217 17.1917 23.49 17.1717 23.2633 17.1317C22.4235 16.9821 21.6546 16.5646 21.0717 15.9417C20.4488 15.2777 20.0738 14.4194 20.0099 13.5113C19.9459 12.6032 20.197 11.7008 20.7207 10.9561C21.2445 10.2115 22.0088 9.67014 22.8851 9.42329C23.7614 9.17644 24.6959 9.23918 25.5314 9.60093C26.3668 9.96268 27.0519 10.6013 27.4714 11.4093C27.891 12.2172 28.0191 13.1451 27.8344 14.0365C27.6497 14.928 27.1633 15.7285 26.4573 16.3032C25.7513 16.8779 24.8687 17.1917 23.9583 17.1917Z" fill="white"/>
<path d="M6.66675 7.60832C6.66675 6.68832 6.66675 5.94165 8.33341 5.94165H11.6667C13.3334 5.94165 13.3334 6.68832 13.3334 7.60832V34.275C13.3334 35.195 13.3334 35.9417 11.6667 35.9417H8.33341C6.66675 35.9417 6.66675 35.195 6.66675 34.275V7.60832ZM28.3334 25.9417C26.6667 25.9417 26.6667 26.6883 26.6667 27.6083V34.275C26.6667 35.195 26.6667 35.9417 28.3334 35.9417H31.6667C32.5867 35.9417 33.3334 35.9417 33.3334 34.275V27.6083C33.3334 26.6883 33.3334 25.9417 31.6667 25.9417H28.3334Z" fill="white"/>
</svg>
