<svg width="51" height="30" viewBox="0 0 51 30" fill="none" xmlns="http://www.w3.org/2000/svg">
<path d="M25.9324 1.65625L18.3699 7.78125C17.1121 8.79688 16.8699 10.625 17.823 11.9297C18.8308 13.3203 20.7917 13.5938 22.1433 12.5391L29.9011 6.50781C30.448 6.08594 31.2292 6.17969 31.6589 6.72656C32.0886 7.27344 31.9871 8.05469 31.4402 8.48438L29.8074 9.75L43.6511 22.5H46.9167C48.9871 22.5 50.6667 20.8203 50.6667 18.75V8.75C50.6667 6.67969 48.9871 5 46.9167 5H40.6121L40.3074 4.80469L34.6355 1.17188C33.4402 0.40625 32.0417 0 30.6199 0C28.9167 0 27.2605 0.585937 25.9324 1.65625ZM27.7136 11.375L23.6746 14.5156C21.2136 16.4375 17.6433 15.9375 15.7996 13.4062C14.0652 11.0234 14.5027 7.69531 16.7917 5.84375L23.2917 0.585938C22.3855 0.203125 21.4089 0.00781238 20.4167 0.00781238C18.948 -1.19326e-07 17.5183 0.4375 16.2917 1.25L10.6667 5H4.41675C2.34644 5 0.666748 6.67969 0.666748 8.75V18.75C0.666748 20.8203 2.34644 22.5 4.41675 22.5H12.8699L20.0105 29.0156C21.5417 30.4141 23.9089 30.3047 25.3074 28.7734C25.7371 28.2969 26.0261 27.7422 26.1746 27.1641L27.5027 28.3828C29.0261 29.7812 31.4011 29.6797 32.7996 28.1562C33.1511 27.7734 33.4089 27.3281 33.573 26.8672C35.0886 27.8828 37.1511 27.6719 38.4246 26.2812C39.823 24.7578 39.7214 22.3828 38.198 20.9844L27.7136 11.375Z" fill="#674816"/>
</svg>
