<svg width="38" height="36" viewBox="0 0 38 36" fill="none" xmlns="http://www.w3.org/2000/svg">
<path d="M12.7383 11.2333L2.10498 12.775L1.91664 12.8133C1.63154 12.889 1.37163 13.039 1.16346 13.248C0.955292 13.457 0.806315 13.7175 0.731746 14.0029C0.657177 14.2883 0.659688 14.5883 0.739022 14.8724C0.818356 15.1566 0.97167 15.4145 1.18331 15.62L8.88664 23.1183L7.06998 33.71L7.04831 33.8933C7.03086 34.1882 7.09209 34.4824 7.22573 34.7458C7.35937 35.0093 7.56062 35.2324 7.80887 35.3925C8.05712 35.5526 8.34346 35.6438 8.63856 35.6568C8.93366 35.6699 9.22692 35.6042 9.48831 35.4667L18.9983 30.4667L28.4866 35.4667L28.6533 35.5433C28.9284 35.6517 29.2274 35.6849 29.5196 35.6396C29.8118 35.5943 30.0866 35.472 30.316 35.2854C30.5453 35.0988 30.7209 34.8546 30.8247 34.5777C30.9285 34.3009 30.9568 34.0014 30.9066 33.71L29.0883 23.1183L36.795 15.6183L36.925 15.4767C37.1107 15.2479 37.2324 14.9741 37.2778 14.683C37.3232 14.3919 37.2907 14.094 37.1835 13.8195C37.0762 13.5451 36.8982 13.304 36.6675 13.1208C36.4367 12.9377 36.1616 12.8189 35.87 12.7767L25.2366 11.2333L20.4833 1.59999C20.3458 1.32088 20.1328 1.08585 19.8686 0.9215C19.6044 0.75715 19.2995 0.670044 18.9883 0.670044C18.6772 0.670044 18.3722 0.75715 18.108 0.9215C17.8438 1.08585 17.6309 1.32088 17.4933 1.59999L12.7383 11.2333Z" fill="#674816"/>
</svg>
