<svg width="34" height="30" viewBox="0 0 34 30" fill="none" xmlns="http://www.w3.org/2000/svg">
<path d="M21.59 11.6667C23.2 11.6667 24.5066 12.9733 24.5066 14.5833V22.4983C24.5066 24.4879 23.7163 26.396 22.3095 27.8028C20.9026 29.2096 18.9945 30 17.005 30C15.0154 30 13.1073 29.2096 11.7005 27.8028C10.2937 26.396 9.50331 24.4879 9.50331 22.4983V14.5833C9.50331 12.9733 10.8083 11.6667 12.42 11.6667H21.59ZM8.88498 11.6667C8.28275 12.3879 7.92141 13.2796 7.85165 14.2167L7.83498 14.5833V22.4983C7.83498 23.91 8.15498 25.2467 8.72498 26.44C8.17387 26.59 7.59887 26.6656 6.99998 26.6667C6.12436 26.6667 5.25732 26.4942 4.44837 26.159C3.63943 25.8239 2.90442 25.3327 2.28535 24.7135C1.66627 24.0942 1.17524 23.3591 0.840305 22.5501C0.505371 21.741 0.333094 20.874 0.333313 19.9983V14.5833C0.333341 13.8513 0.608598 13.1461 1.10445 12.6077C1.60029 12.0692 2.28048 11.7369 3.00998 11.6767L3.24998 11.6667H8.88498ZM25.125 11.6667H30.75C32.36 11.6667 33.6666 12.9733 33.6666 14.5833V20C33.6669 21.0219 33.4322 22.0303 32.9806 22.947C32.5291 23.8638 31.8729 24.6645 31.0626 25.2873C30.2523 25.91 29.3097 26.3382 28.3076 26.5386C27.3055 26.7391 26.2708 26.7065 25.2833 26.4433C25.7833 25.3967 26.09 24.2433 26.1583 23.0233L26.1733 22.4983V14.5833C26.1733 13.475 25.7816 12.4583 25.125 11.6667ZM17 0C18.3261 0 19.5978 0.526784 20.5355 1.46447C21.4732 2.40215 22 3.67392 22 5C22 6.32608 21.4732 7.59785 20.5355 8.53553C19.5978 9.47322 18.3261 10 17 10C15.6739 10 14.4021 9.47322 13.4644 8.53553C12.5268 7.59785 12 6.32608 12 5C12 3.67392 12.5268 2.40215 13.4644 1.46447C14.4021 0.526784 15.6739 0 17 0ZM27.8333 1.66667C28.9384 1.66667 29.9982 2.10565 30.7796 2.88705C31.561 3.66846 32 4.72826 32 5.83333C32 6.9384 31.561 7.99821 30.7796 8.77961C29.9982 9.56101 28.9384 10 27.8333 10C26.7282 10 25.6684 9.56101 24.887 8.77961C24.1056 7.99821 23.6666 6.9384 23.6666 5.83333C23.6666 4.72826 24.1056 3.66846 24.887 2.88705C25.6684 2.10565 26.7282 1.66667 27.8333 1.66667ZM6.16665 1.66667C7.27172 1.66667 8.33152 2.10565 9.11292 2.88705C9.89433 3.66846 10.3333 4.72826 10.3333 5.83333C10.3333 6.9384 9.89433 7.99821 9.11292 8.77961C8.33152 9.56101 7.27172 10 6.16665 10C5.06158 10 4.00177 9.56101 3.22037 8.77961C2.43897 7.99821 1.99998 6.9384 1.99998 5.83333C1.99998 4.72826 2.43897 3.66846 3.22037 2.88705C4.00177 2.10565 5.06158 1.66667 6.16665 1.66667Z" fill="#674816"/>
</svg>
